<svg width="39" height="23" viewBox="0 0 39 23" fill="none" xmlns="http://www.w3.org/2000/svg">
<path d="M37.8877 16.1897C37.5768 15.9824 37.3178 15.9824 37.0328 15.8788C36.6443 15.7752 36.5147 15.283 36.3852 15.2312C36.1002 15.1276 35.8412 15.5679 35.6599 15.4902C35.4785 15.4384 35.4267 14.8685 35.2713 14.8167C34.9863 14.7131 34.7014 15.1535 34.52 15.1017C34.3387 15.0498 34.261 14.4799 34.1055 14.4281C33.8206 14.3245 33.5097 14.7908 33.3543 14.7131C33.173 14.6613 33.1212 14.0654 32.9916 14.0136C32.6808 13.91 32.3958 14.3763 32.1368 14.3245C31.9554 14.2986 31.5927 14.2209 31.0746 13.91C30.9451 13.8064 30.6342 13.5732 30.6083 13.5732C30.5565 13.5473 30.427 13.5214 30.4529 13.7805C30.5306 14.3763 31.5668 14.8167 32.7585 15.1535C33.9501 15.4902 35.1418 15.827 35.8671 16.1638C36.3075 16.371 36.5147 16.6042 36.3334 16.8632C36.2039 17.0445 35.893 17.0705 35.5822 16.915C35.2195 16.7337 35.1936 16.4746 34.9604 16.4228C34.6755 16.371 34.3387 16.8891 34.1314 16.8373C33.8465 16.7596 33.8206 16.1638 33.5615 16.112C33.2248 16.0342 32.8621 16.5264 32.6549 16.4746C32.4476 16.4228 32.3699 15.8011 32.1627 15.7493C31.8259 15.6716 31.4632 16.1897 31.256 16.1379C31.0487 16.0861 30.9192 15.4643 30.7379 15.3866C30.4011 15.2571 29.9348 15.7752 29.4685 15.5161C27.9401 14.4799 28.2251 13.9359 27.0593 13.5992C26.4635 13.4178 25.6863 13.6251 25.246 13.6769C24.2097 13.7805 24.2357 12.8738 24.2357 12.8738C24.5465 12.9515 24.961 13.1329 25.7382 12.8479C26.5671 12.537 27.0593 12.4852 28.1473 12.8479C29.0799 13.1588 29.6239 12.8738 29.9348 12.7961C30.0902 12.7443 30.2198 12.6666 30.5047 12.8479C30.8156 13.0292 31.1005 13.2365 31.2301 13.1847C31.4632 13.081 31.3855 12.4593 31.7741 12.3298C31.9554 12.278 32.4476 12.7702 32.6549 12.6666C32.8621 12.5888 32.8103 11.9412 33.1989 11.8117C33.3802 11.7599 33.8724 12.2521 34.0796 12.1485C34.2869 12.0707 34.2351 11.4231 34.6237 11.2936C34.805 11.2418 35.2972 11.734 35.5044 11.6304C35.7117 11.5526 35.6599 10.905 36.0484 10.7755C36.2298 10.7237 36.722 11.2159 36.9292 11.1122C37.1365 11.0345 37.1106 10.8791 37.2919 10.4387C37.3178 10.361 37.3955 10.2574 37.4732 10.2056C37.7064 9.99832 38.069 9.58384 37.8618 9.11755C37.6805 8.70306 37.266 8.70306 36.4111 8.8844C35.6858 9.03983 31.1264 10.0501 31.1264 10.0501C30.427 8.72897 29.9348 9.60975 28.8727 9.48022C28.1991 9.4025 27.1111 8.72897 25.4014 10.3092C24.4688 10.0501 23.6657 10.2833 23.0699 10.6201C22.0337 10.2056 20.0908 9.19526 16.3605 9.19526C15.2983 9.19526 12.7855 9.4025 8.79613 10.4646C7.78582 10.7237 6.82734 10.6719 6.6201 10.076C6.38695 9.42841 7.2159 8.78078 8.74431 8.02953C12.5783 6.19026 15.1429 6.63064 20.2981 3.88469C23.0699 2.43399 23.2512 0.698345 23.2512 0.283861C23.2512 -0.00109682 22.9663 -0.104718 22.785 0.128429C21.8524 1.42369 21.6192 1.32007 21.3343 1.03511C20.9457 0.646534 20.6866 1.26826 20.2721 1.57912C19.9613 1.81227 19.8836 1.52731 19.6504 1.37188C19.21 1.08692 18.8474 1.91589 18.4847 2.09723C18.0443 2.30447 17.9666 2.07132 17.8371 1.91589C17.7334 1.81227 17.5521 1.81227 17.4226 1.9418C16.5418 2.77076 16.4123 2.69305 16.1532 2.40809C15.946 2.20085 15.8424 2.04542 15.2724 2.64124C14.9357 2.978 14.3917 3.36658 14.2362 2.9521C14.0808 2.53762 13.9254 2.30447 13.1223 3.02982C12.656 3.4702 12.3192 3.49611 12.1638 3.28887C12.0084 3.08163 12.0343 2.51171 11.283 3.10753C10.6095 3.65154 10.2727 3.9624 10.0396 3.4443C9.83233 2.9521 9.31424 3.36658 8.95157 3.72926C8.74433 3.91059 8.43345 4.37689 8.1485 3.91059C7.88944 3.4702 7.44905 3.9365 6.93095 4.50641C6.62008 4.81728 6.41285 4.68775 6.12789 4.48051C5.79112 4.22146 5.40254 5.12814 4.91034 5.64624C4.80672 5.72396 4.6772 5.80168 4.36634 5.59443C3.97776 5.33538 3.35603 6.70836 3.1747 7.04513C2.88974 7.58914 2.55297 6.8897 2.2162 7.4078C1.43904 8.57354 0.584174 9.84289 0.351026 12.0966C0.0660688 14.8167 1.07637 17.0186 2.08667 17.8217C2.08667 17.8217 1.95715 18.1326 1.82762 18.4952C1.54266 19.2724 1.41313 20.2568 1.80171 20.9562C2.16439 21.6298 2.99336 22.7437 3.30422 21.6816C3.45965 21.1635 3.58918 21.1894 4.08138 21.5521C4.83263 22.0702 4.65129 21.1117 4.80672 20.8267C4.91034 20.6195 5.03987 20.5418 5.6616 20.9562C6.02427 21.1894 6.12789 20.8785 6.23151 20.4381C6.56828 19.0911 5.92065 18.7543 5.29892 18.6248C4.83263 18.5211 4.36634 18.5989 4.36634 18.5989C5.37664 17.0705 5.50617 16.2415 4.36634 15.4643C4.52177 15.3866 4.6772 15.4384 4.80672 15.4902C5.09168 15.6198 5.32483 15.827 5.45435 16.0861C5.60978 16.371 5.86884 16.9668 5.35073 18.0549C5.55798 18.0549 6.41285 18.1067 6.77552 18.9615C7.26772 19.117 10.4541 19.376 11.8529 19.1429C12.371 19.0652 12.5783 18.5989 13.0964 18.1326C13.6404 17.6145 14.288 17.0705 14.858 17.4849C13.8736 17.8735 13.2 18.6507 13.2 19.6092C13.2 20.3345 13.485 20.6195 14.0031 21.0599C14.4694 21.4484 14.6248 22.0702 14.7802 22.5365C14.9875 23.1323 15.4538 23.1582 15.5574 22.5883C15.6869 21.7852 15.946 21.9406 16.2568 22.2774C16.6454 22.6919 16.9304 22.6401 16.9304 22.0443C16.9304 21.4743 17.1117 21.1894 17.7334 21.8629C17.9925 22.122 18.3034 22.122 18.3034 21.5521C18.3034 20.8526 18.6142 20.9044 19.0028 21.2153C19.1323 21.3189 19.2359 21.3966 19.3137 21.3966C19.6245 21.3707 19.8318 20.7749 19.5986 20.3086C19.4691 20.0755 19.3137 19.7128 17.7075 19.376C17.1894 19.2724 17.2671 18.9097 17.2671 18.9097C21.2047 19.0911 24.5206 18.5989 26.7226 17.2777C29.4167 17.9253 33.3543 17.9771 34.6496 17.9771C35.9448 17.9512 36.9292 17.8994 37.7323 17.5108C38.4317 17.0705 38.3022 16.4487 37.8877 16.1897ZM29.7794 10.076C29.8571 9.8688 30.0125 9.73927 30.1939 9.73927C30.5047 9.73927 30.6342 10.076 30.6342 10.1538L29.9089 10.3092C29.7017 10.3869 29.7017 10.2574 29.7794 10.076ZM27.9142 10.0242C28.4064 10.0242 28.7173 10.4128 28.7691 10.5941C28.7691 10.5941 28.0178 10.7496 27.6811 10.8273C27.4738 10.8791 27.3184 10.7755 27.2925 10.6201C27.2925 10.4128 27.4997 10.0242 27.9142 10.0242ZM7.08639 5.4131C7.42316 5.25767 7.78583 5.12814 8.17441 5.05042C8.25213 5.05042 8.30393 5.07633 8.27802 5.12814C8.22621 5.36129 8.14849 5.62034 8.09668 5.87939C8.07078 5.9312 8.01897 5.98301 7.96716 5.9312C7.6822 5.80168 7.39725 5.64624 7.08639 5.49081C7.00867 5.49081 7.00867 5.439 7.08639 5.4131ZM5.42845 6.19025C5.76521 6.03482 6.12789 5.9053 6.51647 5.82758C6.59419 5.82758 6.646 5.85349 6.6201 5.9053C6.56829 6.16435 6.49057 6.3975 6.43876 6.65655C6.43876 6.70836 6.36104 6.76017 6.30923 6.70836C6.02427 6.57883 5.73931 6.4234 5.42845 6.26797C5.37664 6.26797 5.37664 6.21616 5.42845 6.19025ZM6.1538 7.9C6.23151 7.8741 6.28332 7.9259 6.25742 7.97772C6.20561 8.23677 6.12789 8.46991 6.07608 8.72897C6.07608 8.78078 5.99836 8.83259 5.94655 8.78078C5.66159 8.65125 5.37664 8.49582 5.06577 8.34039C4.98806 8.31448 4.98806 8.26267 5.06577 8.21086C5.40254 8.08134 5.76522 7.97772 6.1538 7.9ZM5.45435 9.32479C5.40254 9.55794 5.32483 9.81699 5.27302 10.076C5.24712 10.1278 5.19531 10.1797 5.1435 10.1279C4.85854 9.99832 4.57357 9.84289 4.26271 9.68746C4.185 9.66155 4.185 9.60974 4.26271 9.55793C4.59948 9.4025 4.96216 9.27298 5.35073 9.19526C5.42845 9.24707 5.48026 9.27298 5.45435 9.32479ZM3.95185 7.17465C4.28862 7.01922 4.65129 6.8897 5.03987 6.81198C5.11758 6.78607 5.1694 6.83789 5.1435 6.8897C5.09168 7.12284 5.01397 7.3819 4.96216 7.64095C4.93625 7.69276 4.88444 7.74457 4.83263 7.69276C4.54767 7.56323 4.26272 7.4078 3.95185 7.25237C3.90004 7.27828 3.90004 7.22646 3.95185 7.17465ZM2.83792 8.46991C3.17469 8.31448 3.53737 8.18496 3.92595 8.10724C4.00366 8.08134 4.05547 8.13315 4.02957 8.18496C3.97775 8.44401 3.90004 8.67716 3.84823 8.93621C3.82233 8.98802 3.77052 9.03983 3.71871 8.98802C3.43375 8.85849 3.14879 8.70306 2.83792 8.54763C2.76021 8.57354 2.76021 8.52173 2.83792 8.46991ZM2.39754 9.97242C2.73431 9.81699 3.09698 9.68746 3.48555 9.60975C3.56327 9.58384 3.61509 9.63565 3.58918 9.68746C3.53737 9.94651 3.45965 10.1797 3.40784 10.4387C3.38194 10.4905 3.33013 10.5423 3.27831 10.4905C2.99336 10.361 2.7084 10.2056 2.39754 10.0501C2.34573 10.076 2.34573 9.99832 2.39754 9.97242ZM2.60478 11.6044C2.52706 11.5785 2.52706 11.5267 2.60478 11.4749C2.94155 11.3195 3.30422 11.19 3.6928 11.1122C3.77052 11.1122 3.82232 11.1382 3.79642 11.19C3.74461 11.449 3.66689 11.6822 3.61508 11.9412C3.58917 11.993 3.53736 12.0448 3.48555 11.993C3.2006 11.8894 2.91564 11.7599 2.60478 11.6044ZM4.52176 13.4178C4.49586 13.4696 4.44405 13.5214 4.39224 13.4696C4.10728 13.3401 3.82232 13.1847 3.51146 13.0292C3.43374 13.0033 3.43374 12.9515 3.51146 12.8997C3.84823 12.7443 4.21091 12.6148 4.59948 12.537C4.6772 12.5111 4.72901 12.5629 4.7031 12.6148C4.65129 12.8997 4.57357 13.1588 4.52176 13.4178ZM4.44405 11.19C4.36633 11.1641 4.36633 11.1122 4.44405 11.0604C4.78082 10.905 5.1435 10.7755 5.53207 10.6978C5.60979 10.6719 5.6616 10.7237 5.63569 10.7755C5.58388 11.0086 5.50616 11.2677 5.45435 11.5267C5.45435 11.5785 5.37664 11.6304 5.32483 11.5785C5.03987 11.5008 4.75491 11.3454 4.44405 11.19ZM6.1538 14.2468C6.12789 14.2986 6.07608 14.3504 6.02427 14.2986C5.73931 14.1691 5.45436 14.0136 5.1435 13.8582C5.06578 13.8323 5.06578 13.7805 5.1435 13.7287C5.48026 13.5732 5.84293 13.4437 6.23151 13.366C6.30923 13.366 6.36103 13.3919 6.33513 13.4437C6.25741 13.7546 6.20561 13.9877 6.1538 14.2468ZM6.49057 12.6666C6.46467 12.7184 6.41285 12.7702 6.36104 12.7184C6.07609 12.5888 5.79112 12.4334 5.48026 12.278C5.40254 12.2521 5.40254 12.2003 5.48026 12.1485C5.81703 11.993 6.1797 11.8635 6.56828 11.7858C6.646 11.7599 6.6978 11.8117 6.67189 11.8635C6.62008 12.1485 6.56829 12.4075 6.49057 12.6666ZM8.1226 13.4437C8.07079 13.7028 7.99307 13.9359 7.94126 14.195C7.91535 14.2468 7.86354 14.2986 7.81173 14.2468C7.52677 14.1173 7.24181 13.9618 6.93095 13.8064C6.85323 13.7805 6.85323 13.7287 6.93095 13.6769C7.26772 13.5214 7.63039 13.3919 8.01897 13.3142C8.07078 13.3401 8.1226 13.3919 8.1226 13.4437ZM8.17441 12.5888C7.88945 12.4593 7.60449 12.3039 7.29363 12.1485C7.21591 12.1226 7.21591 12.0707 7.29363 12.0189C7.63039 11.8635 7.99307 11.734 8.38165 11.6563C8.45937 11.6563 8.51117 11.6822 8.48526 11.734C8.43345 11.993 8.35575 12.2262 8.30394 12.4852C8.30394 12.5888 8.25213 12.6407 8.17441 12.5888ZM9.57328 14.6354C9.52147 14.8685 9.44375 15.1276 9.39194 15.3866C9.36604 15.4384 9.31423 15.4902 9.26242 15.4384C8.97746 15.3089 8.69251 15.1535 8.38165 14.998C8.30393 14.9721 8.30393 14.9203 8.38165 14.8685C8.71842 14.7131 9.08109 14.5836 9.46967 14.5058C9.54739 14.5317 9.59919 14.5836 9.57328 14.6354ZM9.93596 13.0033C9.88415 13.2365 9.80643 13.4955 9.75462 13.7546C9.72872 13.8064 9.67691 13.8582 9.6251 13.8064C9.34014 13.6769 9.05518 13.5214 8.74431 13.366C8.6666 13.3401 8.6666 13.2883 8.74431 13.2365C9.08108 13.081 9.44376 12.9515 9.83234 12.8738C9.91005 12.8997 9.96187 12.9256 9.93596 13.0033ZM10.1691 12.0189C10.1432 12.0707 10.0914 12.1226 10.0396 12.0707C9.75462 11.9412 9.46967 11.7858 9.15881 11.6304C9.08109 11.6044 9.08109 11.5526 9.15881 11.5008C9.49557 11.3454 9.85825 11.2159 10.2468 11.1382C10.3245 11.1122 10.3763 11.1641 10.3504 11.2159C10.2727 11.5267 10.2209 11.7599 10.1691 12.0189ZM11.283 14.8426C11.283 14.8944 11.2053 14.9462 11.1535 14.8944C10.8686 14.7649 10.5836 14.6095 10.2727 14.454C10.195 14.4281 10.195 14.3763 10.2727 14.3245C10.6095 14.1691 10.9722 14.0395 11.3608 13.9618C11.4385 13.9618 11.4903 13.9877 11.4644 14.0395C11.3866 14.3245 11.3348 14.5836 11.283 14.8426ZM11.6198 13.2624C11.6198 13.3142 11.5421 13.366 11.4903 13.3142C11.2053 13.1847 10.9204 13.0292 10.6095 12.8738C10.5318 12.8479 10.5318 12.7961 10.6095 12.7443C10.9463 12.5888 11.3089 12.4593 11.6975 12.3816C11.7752 12.3816 11.827 12.4075 11.8011 12.4593C11.7493 12.7443 11.6716 13.0033 11.6198 13.2624ZM11.8789 11.6563C11.5939 11.5267 11.3089 11.3713 10.9981 11.2159C10.9204 11.19 10.9204 11.1382 10.9981 11.0863C11.3348 10.9309 11.6975 10.8014 12.0861 10.7237C12.1638 10.7237 12.2156 10.7496 12.1897 10.8014C12.1379 11.0345 12.0602 11.2936 12.0084 11.5526C11.9825 11.6563 11.9307 11.6822 11.8789 11.6563ZM13.3555 13.6769C13.3036 13.91 13.2259 14.1691 13.1741 14.4281C13.1482 14.4799 13.0964 14.5317 13.0446 14.4799C12.7596 14.3504 12.4747 14.195 12.1638 14.0395C12.0861 14.0136 12.0861 13.9618 12.1638 13.91C12.5006 13.7546 12.8633 13.6251 13.2518 13.5473C13.3036 13.5992 13.3555 13.6251 13.3555 13.6769ZM13.6922 12.0966C13.6404 12.3298 13.5627 12.5888 13.5109 12.8479C13.485 12.8997 13.4332 12.9515 13.3814 12.8997C13.0964 12.7702 12.8114 12.6148 12.5006 12.4593C12.4229 12.4334 12.4229 12.3816 12.5006 12.3298C12.8373 12.1744 13.2 12.0448 13.5886 11.9671C13.6663 11.993 13.7181 12.0448 13.6922 12.0966ZM13.744 11.3454C13.4591 11.2159 13.1741 11.0604 12.8633 10.905C12.7855 10.8791 12.7855 10.8273 12.8633 10.7755C13.2 10.62 13.5627 10.4905 13.9513 10.4128C14.029 10.3869 14.0808 10.4387 14.0549 10.4905C14.0031 10.7237 13.9254 10.9827 13.8736 11.2418C13.8736 11.3454 13.7958 11.3713 13.744 11.3454ZM15.1947 13.4955C15.1429 13.7546 15.0652 13.9877 15.0134 14.2468C15.0134 14.2986 14.9357 14.3504 14.8839 14.2986C14.5989 14.1691 14.314 14.0136 14.0031 13.8582C13.9254 13.8323 13.9254 13.7805 14.0031 13.7287C14.3399 13.5732 14.7025 13.4437 15.0911 13.366C15.1429 13.3919 15.1947 13.4437 15.1947 13.4955ZM15.5315 11.9153C15.4797 12.1744 15.402 12.4075 15.3501 12.6666C15.3242 12.7184 15.2724 12.7702 15.2206 12.7184C14.9357 12.5888 14.6507 12.4334 14.3399 12.278C14.2621 12.2521 14.2621 12.2003 14.3399 12.1485C14.6766 11.993 15.0393 11.8635 15.4279 11.7858C15.5056 11.8117 15.5574 11.8635 15.5315 11.9153ZM15.7128 11.1382C15.7128 11.19 15.6351 11.2418 15.5833 11.19C15.2983 11.0604 15.0134 10.905 14.7025 10.7496C14.6248 10.7237 14.6248 10.6719 14.7025 10.6201C15.0393 10.4646 15.402 10.3351 15.7905 10.2574C15.8683 10.2574 15.9201 10.2833 15.8942 10.3351C15.8165 10.62 15.7646 10.8791 15.7128 11.1382ZM17.0081 13.5732C16.9563 13.8064 16.8786 14.0654 16.8268 14.3245C16.8008 14.3763 16.749 14.4281 16.6972 14.3763C16.4123 14.2468 16.1273 14.0914 15.8165 13.9359C15.7387 13.91 15.7387 13.8582 15.8165 13.8064C16.1532 13.651 16.5159 13.5214 16.9045 13.4437C16.9822 13.4696 17.034 13.4955 17.0081 13.5732ZM17.3708 11.9671C17.319 12.2003 17.2412 12.4593 17.1894 12.7184C17.1635 12.7702 17.1117 12.822 17.0599 12.7702C16.7749 12.6407 16.49 12.4852 16.1791 12.3298C16.1014 12.3039 16.1014 12.2521 16.1791 12.2003C16.5159 12.0448 16.8786 11.9153 17.2671 11.8376C17.319 11.8635 17.3708 11.9153 17.3708 11.9671ZM17.7075 10.4128C17.6557 10.646 17.578 10.905 17.5262 11.1641C17.5003 11.2159 17.4485 11.2677 17.3967 11.2159C17.1117 11.0863 16.8267 10.9309 16.5159 10.7755C16.4382 10.7496 16.4382 10.6978 16.5159 10.646C16.8527 10.4905 17.2153 10.361 17.6039 10.2833C17.6816 10.3092 17.7334 10.361 17.7075 10.4128ZM18.951 13.0551C18.951 13.107 18.8733 13.1329 18.8215 13.107C18.5365 12.9774 18.2515 12.822 17.9407 12.6666C17.863 12.6407 17.863 12.5888 17.9407 12.537C18.2774 12.3816 18.6401 12.2521 19.0287 12.1744C19.1064 12.1744 19.1582 12.2003 19.1323 12.2521C19.0805 12.5629 19.0028 12.822 18.951 13.0551ZM19.495 10.6978C19.4432 10.9568 19.3655 11.19 19.3137 11.449C19.2878 11.5008 19.2359 11.5526 19.1841 11.5008C18.8992 11.3713 18.6142 11.2159 18.3034 11.0604C18.2256 11.0345 18.2256 10.9827 18.3034 10.9309C18.6401 10.7755 19.0028 10.646 19.3914 10.5682C19.4432 10.5941 19.495 10.646 19.495 10.6978ZM21.1788 11.2936C21.127 11.5526 21.0493 11.7858 20.9975 12.0448C20.9716 12.0966 20.9198 12.1485 20.868 12.0966C20.583 11.9671 20.2981 11.8117 19.9872 11.6563C19.9095 11.6304 19.9095 11.5785 19.9872 11.5267C20.324 11.3713 20.6866 11.2418 21.0752 11.1641C21.127 11.19 21.1788 11.2418 21.1788 11.2936Z" fill="#00552D"/>
<path d="M28.1474 12.8223C27.0594 12.4596 26.5931 12.5114 25.7383 12.8223C24.9611 13.1072 24.5466 12.9259 24.2358 12.8482C24.2358 12.8482 24.1839 13.7549 25.2461 13.6513C25.6864 13.5994 26.4377 13.3922 27.0594 13.5735C28.2252 13.9103 27.9402 14.4543 29.4686 15.4905C29.9349 15.7496 30.4012 15.2315 30.738 15.361C30.9193 15.4387 31.0488 16.0604 31.2561 16.1122C31.4633 16.1641 31.826 15.62 32.1628 15.7237C32.37 15.7755 32.4477 16.4231 32.655 16.449C32.8622 16.5008 33.2249 15.9827 33.5616 16.0863C33.8207 16.1641 33.8466 16.7599 34.1315 16.8117C34.3388 16.8635 34.7015 16.3454 34.9605 16.3972C35.1937 16.449 35.2196 16.734 35.5822 16.8894C35.919 17.0448 36.2299 17.0448 36.3335 16.8376C36.4889 16.6044 36.3076 16.3454 35.8672 16.1382C35.1419 15.8014 33.9502 15.4646 32.7586 15.1278C31.5669 14.7911 30.5307 14.3507 30.453 13.7549C30.4271 13.4958 30.5566 13.5217 30.6084 13.5476C30.1421 13.2109 30.0644 12.8741 30.0903 12.7187C30.0385 12.7187 30.0126 12.7446 29.9608 12.7446C29.624 12.8482 29.08 13.1331 28.1474 12.8223Z" fill="#E10041"/>
</svg>
